<svg width="12" height="12" viewBox="0 0 12 12" fill="none" xmlns="http://www.w3.org/2000/svg">
<mask id="path-1-inside-1_506_4" fill="white">
<path d="M0 12L12 12L6 0L0 12Z"/>
</mask>
<path d="M12 12L12 20H24.9443L19.1554 8.42229L12 12ZM0 12L-7.15542 8.42229L-12.9443 20L0 20L0 12ZM6 0L13.1554 -3.57771L6 -17.8885L-1.15542 -3.57771L6 0ZM12 4L0 4L0 20H12L12 4ZM7.15542 15.5777L13.1554 3.57771L-1.15542 -3.57771L-7.15542 8.42229L7.15542 15.5777ZM-1.15542 3.57771L4.84458 15.5777L19.1554 8.42229L13.1554 -3.57771L-1.15542 3.57771Z" fill="#222222" mask="url(#path-1-inside-1_506_4)"/>
</svg>
