<svg width="12" height="12" viewBox="0 0 12 12" fill="none" xmlns="http://www.w3.org/2000/svg">
<mask id="path-1-inside-1_506_4" fill="white">
<path d="M12 0H0L6 12L12 0Z"/>
</mask>
<path d="M0 0V-8H-12.9443L-7.15542 3.57771L0 0ZM12 0L19.1554 3.57771L24.9443 -8H12V0ZM6 12L-1.15542 15.5777L6 29.8885L13.1554 15.5777L6 12ZM0 8H12V-8H0V8ZM4.84458 -3.57771L-1.15542 8.42229L13.1554 15.5777L19.1554 3.57771L4.84458 -3.57771ZM13.1554 8.42229L7.15542 -3.57771L-7.15542 3.57771L-1.15542 15.5777L13.1554 8.42229Z" fill="#222222" mask="url(#path-1-inside-1_506_4)"/>
</svg>
